<svg width="30" height="30" viewBox="0 0 30 30" fill="none" xmlns="http://www.w3.org/2000/svg">
<circle cx="15" cy="15" r="15" fill="#005896"/>
<path d="M18.3333 10.8333C18.3333 10.6123 18.421 10.4004 18.5773 10.2441C18.7336 10.0878 18.9456 10 19.1666 10C19.3876 10 19.5996 10.0878 19.7558 10.2441C19.9121 10.4004 19.9999 10.6123 19.9999 10.8333C19.9999 11.0543 19.9121 11.2663 19.7558 11.4226C19.5996 11.5789 19.3876 11.6667 19.1666 11.6667C18.9456 11.6667 18.7336 11.5789 18.5773 11.4226C18.421 11.2663 18.3333 11.0543 18.3333 10.8333Z" fill="white"/>
<path fill-rule="evenodd" clip-rule="evenodd" d="M15.0001 11.0415C13.9503 11.0415 12.9434 11.4585 12.2011 12.2009C11.4588 12.9432 11.0417 13.95 11.0417 14.9998C11.0417 16.0497 11.4588 17.0565 12.2011 17.7988C12.9434 18.5411 13.9503 18.9582 15.0001 18.9582C16.0499 18.9582 17.0567 18.5411 17.799 17.7988C18.5414 17.0565 18.9584 16.0497 18.9584 14.9998C18.9584 13.95 18.5414 12.9432 17.799 12.2009C17.0567 11.4585 16.0499 11.0415 15.0001 11.0415ZM12.2917 14.9998C12.2917 14.2815 12.5771 13.5927 13.085 13.0848C13.5929 12.5768 14.2818 12.2915 15.0001 12.2915C15.7184 12.2915 16.4073 12.5768 16.9152 13.0848C17.4231 13.5927 17.7084 14.2815 17.7084 14.9998C17.7084 15.7181 17.4231 16.407 16.9152 16.9149C16.4073 17.4228 15.7184 17.7082 15.0001 17.7082C14.2818 17.7082 13.5929 17.4228 13.085 16.9149C12.5771 16.407 12.2917 15.7181 12.2917 14.9998Z" fill="white"/>
<path fill-rule="evenodd" clip-rule="evenodd" d="M19.3815 7.36078C16.4694 7.03794 13.5304 7.03794 10.6182 7.36078C8.94155 7.54828 7.58738 8.86911 7.39072 10.5541C7.04522 13.5079 7.04522 16.492 7.39072 19.4458C7.58738 21.1308 8.94072 22.4516 10.6182 22.6391C13.5304 22.9616 16.4693 22.9616 19.3815 22.6391C21.0582 22.4516 22.4124 21.1308 22.6091 19.4458C22.9546 16.492 22.9546 13.5079 22.6091 10.5541C22.4124 8.86911 21.0591 7.54828 19.3815 7.36078ZM10.7566 8.60245C13.5768 8.28984 16.423 8.28984 19.2432 8.60245C20.3516 8.72745 21.2391 9.60161 21.3682 10.6999C21.7023 13.5569 21.7023 16.443 21.3682 19.2999C21.3014 19.8375 21.0553 20.3368 20.6698 20.7172C20.2842 21.0977 19.7816 21.337 19.2432 21.3966C16.423 21.7092 13.5768 21.7092 10.7566 21.3966C10.2182 21.337 9.71559 21.0977 9.33001 20.7172C8.94443 20.3368 8.69836 19.8375 8.63155 19.2999C8.29742 16.443 8.29742 13.5569 8.63155 10.6999C8.69836 10.1624 8.94443 9.6631 9.33001 9.28266C9.71559 8.90222 10.2182 8.66204 10.7566 8.60245Z" fill="white"/>
</svg>
