<svg width="30" height="30" viewBox="0 0 30 30" fill="none" xmlns="http://www.w3.org/2000/svg">
<circle cx="15" cy="15" r="15" fill="#005896"/>
<path d="M10.7833 9.16652C10.7831 9.60855 10.6073 10.0324 10.2945 10.3448C9.98182 10.6572 9.55781 10.8326 9.11578 10.8324C8.67376 10.8321 8.24992 10.6563 7.93752 10.3436C7.62511 10.0309 7.44973 9.60688 7.44995 9.16486C7.45017 8.72283 7.62598 8.29899 7.9387 7.98659C8.25141 7.67419 8.67542 7.4988 9.11745 7.49902C9.55948 7.49924 9.98331 7.67505 10.2957 7.98777C10.6081 8.30049 10.7835 8.7245 10.7833 9.16652ZM10.8333 12.0665H7.49995V22.4999H10.8333V12.0665ZM16.1 12.0665H12.7833V22.4999H16.0666V17.0249C16.0666 13.9749 20.0416 13.6915 20.0416 17.0249V22.4999H23.3333V15.8915C23.3333 10.7499 17.45 10.9415 16.0666 13.4665L16.1 12.0665Z" fill="white"/>
</svg>
