<svg width="30" height="30" viewBox="0 0 30 30" fill="none" xmlns="http://www.w3.org/2000/svg">
<circle cx="15" cy="15" r="15" fill="#005896"/>
<path d="M23.7168 10.0002C23.0751 10.2918 22.3834 10.4835 21.6668 10.5752C22.4001 10.1335 22.9668 9.4335 23.2334 8.59183C22.5418 9.0085 21.7751 9.30016 20.9668 9.46683C20.3084 8.75016 19.3834 8.3335 18.3334 8.3335C16.3751 8.3335 14.7751 9.9335 14.7751 11.9085C14.7751 12.1918 14.8084 12.4668 14.8668 12.7252C11.9001 12.5752 9.25845 11.1502 7.50011 8.99183C7.19178 9.51683 7.01678 10.1335 7.01678 10.7835C7.01678 12.0252 7.64178 13.1252 8.60845 13.7502C8.01678 13.7502 7.46678 13.5835 6.98345 13.3335V13.3585C6.98345 15.0918 8.21678 16.5418 9.85011 16.8668C9.32572 17.0103 8.77519 17.0303 8.24178 16.9252C8.46812 17.6356 8.9114 18.2572 9.50929 18.7026C10.1072 19.148 10.8297 19.3949 11.5751 19.4085C10.3115 20.4089 8.74511 20.9496 7.13345 20.9418C6.85011 20.9418 6.56678 20.9252 6.28345 20.8918C7.86678 21.9085 9.75011 22.5002 11.7668 22.5002C18.3334 22.5002 21.9418 17.0502 21.9418 12.3252C21.9418 12.1668 21.9418 12.0168 21.9334 11.8585C22.6334 11.3585 23.2334 10.7252 23.7168 10.0002Z" fill="white"/>
</svg>
